# xmcd CD database file
#
# Track frame offsets:
#	150
#	21035
#	38610
#	55421
#	76036
#	94664
#	115259
#	134794
#	154691
#	174892
#	192837
#	209257
#	222372
#	241757
#	273293
#	292124
#
# Disc length: 4262 seconds
#
# Revision: 1
# Processed by: cddbd v1.5.1PL0 Copyright (c) Steve Scherf et al.
# Submitted via: CDex 1.51
#
DISCID=da10a410
DTITLE=Presuntos Implicados - ser de agua
DYEAR=2002
DGENRE=Jazz
TTITLE0=Como hemos cambiado (versión en vivo)
TTITLE1=Barbara del campo
TTITLE2=Recibes cartas
TTITLE3=Sentir su calor
TTITLE4=Mil mariposas
TTITLE5=Llovió
TTITLE6=De puntillas
TTITLE7=Icaro
TTITLE8=Cuando quiero sol
TTITLE9=Andas junto a mi
TTITLE10=Al atardecer
TTITLE11=Ser de agua
TTITLE12=Como hemos cambiado (versión para Compact Disc)
TTITLE13=Llovió (Remix 92)
TTITLE14=Mil mariposas (Montreux 94)
TTITLE15=Como hemos cambiado `02
EXTD=YEAR: 2002
EXTT0=
EXTT1=
EXTT2=
EXTT3=
EXTT4=
EXTT5=
EXTT6=
EXTT7=
EXTT8=
EXTT9=
EXTT10=
EXTT11=
EXTT12=
EXTT13=
EXTT14=
EXTT15=
PLAYORDER=
